<?xml version="1.0" encoding="utf-8"?>
<!-- Generator: Adobe Illustrator 15.1.0, SVG Export Plug-In . SVG Version: 6.00 Build 0)  -->
<!DOCTYPE svg PUBLIC "-//W3C//DTD SVG 1.1//EN" "http://www.w3.org/Graphics/SVG/1.1/DTD/svg11.dtd">
<svg version="1.1" id="Layer_1" xmlns="http://www.w3.org/2000/svg" xmlns:xlink="http://www.w3.org/1999/xlink" x="0px" y="0px"
	 width="2781px" height="336px" viewBox="0 0 2781 336" enable-background="new 0 0 2781 336" xml:space="preserve">
<path d="M591.723,101.908c-4.331-6.224-8.858-10.602-13.485-12.967c-4.6-2.374-10.53-3.584-17.616-3.584h-76.416v153.852h76
	c11.711,0,21.224-4.261,28.328-12.691c2.917-3.681,5.001-7.463,6.197-11.254c1.166-3.727,1.756-8.604,1.756-14.47v-78.897
	C596.486,113.299,594.882,106.59,591.723,101.908 M584.323,203.189l-0.417,3.08c-1.648,11.554-7.773,18.151-18.6,20.135
	l-5.431,0.611h-63.468V97.548h63.797c5.078,0,9.247,0.875,12.401,2.605c3.12,1.719,6.063,4.774,8.729,9.106
	c1.97,3.178,2.964,7.432,2.964,12.637L584.323,203.189z"/>
<path d="M741.995,164.172v-4.605c0-12.92-2.465-21.893-7.536-27.445c-5.066-5.486-13.576-8.272-25.339-8.272h-31.516
	c-20.57,0-31.454,11.855-31.454,34.3v49.603c0,10.085,3.58,18.097,10.611,23.806c6.2,5.084,14.977,7.652,26.057,7.652h59.177
	v-11.266h-61.213c-8.846,0-15.022-1.666-18.361-4.98c-3.324-3.322-5.001-9.515-5.001-18.451v-3.324L741.995,164.172z
	 M657.419,188.684v-32.36c0-7.639,1.927-13.069,5.724-16.16c3.972-3.236,10.952-4.862,20.771-4.862h22.368
	c16.472,0,24.478,6.131,24.489,18.529l-0.289,2.872L657.419,188.684z"/>
<path fill="#339AD5" d="M1015.95,82.403c-1.458-1.904-3.416-3.211-5.679-3.791l-0.712-0.155c-4.081-0.702-8.146,1.091-10.685,4.682
	l-3.238,5.973L938.49,208.57L881.348,89.068l-2.896-5.385l-0.37-0.59c-2.489-3.544-6.529-5.32-10.703-4.625l-0.679,0.155
	c-2.252,0.569-4.207,1.876-5.643,3.78c-1.704,2.194-2.571,4.545-2.571,6.971v149.834h20.134V129.804l47.292,99.553
	c0.236,0.426,5.737,10.826,12.39,10.826h0.382h0.011c6.642,0,12.152-10.4,12.413-10.885l47.278-99.496v109.405h20.123V89.375
	C1018.51,86.948,1017.641,84.597,1015.95,82.403"/>
<path fill="#339AD5" d="M1158.815,162.763v-7.225c0-13.975-2.807-23.839-8.594-30.162c-5.872-6.369-15.391-9.603-28.301-9.603
	h-31.527c-16.173,0-35.475,6.65-35.475,38.336v49.614c0,11.344,4.069,20.408,12.094,26.918c6.937,5.672,16.562,8.567,28.585,8.567
	h63.217v-19.312h-65.242c-7.639,0-12.998-1.33-15.51-3.822c-2.5-2.488-3.827-7.896-3.827-15.604v-0.687L1158.815,162.763z
	 M1074.237,178.48v-26.19c0-6.367,1.43-10.761,4.243-13.066c1.813-1.468,6.578-3.936,18.208-3.936h22.387
	c17.903,0,20.37,7.339,20.44,14.374l-0.022,0.263L1074.237,178.48z"/>
<path fill="#339AD5" d="M1276.36,80.193v35.581h-46.064c-12.391,0-22.085,3.329-28.818,9.91c-3.7,3.521-6.449,7.682-8.181,12.332
	c-1.694,4.493-2.552,9.842-2.552,15.873v51.035c0,8.883,2.952,16.758,8.787,23.461c3.873,4.19,8.158,7.098,12.721,8.641
	c4.26,1.457,10.279,2.174,18.378,2.174h28.407c12.211,0,21.51-3.333,27.609-9.876c5.98-6.437,9.014-15.62,9.014-27.269V80.193
	H1276.36z M1210.057,154.364c0-4.424,0.596-7.852,1.77-10.195c1.124-2.229,3.174-4.33,6.104-6.236
	c1.266-0.845,2.691-1.423,4.342-1.796c1.88-0.421,4.459-0.635,7.624-0.635h46.465v66.271c0,5.882-1.354,10.053-4.141,12.775
	c-2.986,2.883-8.075,4.758-14.976,5.53h-26.949c-10.787,0-14.854-2.454-16.313-3.912c-2.536-2.547-3.925-8.21-3.925-15.969V154.364
	L1210.057,154.364z"/>
<path fill="#339AD5" d="M1343.559,110.196c3.406,0,6.415-1.29,8.72-3.73c2.2-2.336,3.363-5.287,3.363-8.563
	c0-4.599-2.024-7.503-3.731-9.144c-2.348-2.187-5.158-3.35-8.146-3.35c-3.578,0-6.72,1.324-8.798,3.698
	c-2.191,2.192-3.294,5.286-3.294,9.199c0,2.836,1.091,5.488,3.234,7.909C1337.222,108.826,1340.207,110.196,1343.559,110.196"/>
<rect x="1334.106" y="115.783" fill="#339AD5" width="19.313" height="123.426"/>
<path fill="#339AD5" d="M1455.115,115.778h-63.858v19.516h67.125c5.846,0,10.168,1.366,13.188,4.174
	c2.858,2.692,4.258,6.743,4.258,12.412v0.713h-49.301c-10.563,0-19.172,3.281-25.587,9.741c-6.425,6.456-9.684,15.16-9.684,25.884
	V204.8c0,8.854,2.61,16.499,7.762,22.681c5.21,6.24,12.558,10.17,22.011,11.67l39.46,0.048c5.687,0,10.696-0.87,14.938-2.605
	c4.328-1.795,8.183-4.569,11.507-8.274c3.309-3.754,5.44-7.342,6.521-10.969c0.994-3.313,1.49-8.031,1.49-14.438V153.08
	C1494.946,136.063,1488.036,115.778,1455.115,115.778 M1475.828,171.893v32.641c0,5.269-1.214,9.055-3.701,11.623
	c-2.435,2.513-6.127,3.73-11.301,3.73l-36.816,0.021c-9.446-1.727-13.465-6.417-13.465-15.667v-16.498
	c0-9.622,3.759-14.371,12.394-15.851H1475.828L1475.828,171.893z"/>
<path d="M1873.589,123.826h-59.837V135.3h63.127c6.819,0,12.17,1.766,15.897,5.251c3.748,3.484,5.568,8.503,5.568,15.352v4.737
	h-53.341c-9.414,0-17.066,2.876-22.726,8.563c-5.667,5.724-8.526,13.468-8.526,23.054v16.548c0,7.896,2.317,14.68,6.868,20.135
	c4.542,5.479,11.055,8.916,19.706,10.271h38.626c5.176,0,9.688-0.786,13.406-2.328c3.786-1.554,7.166-3.993,10.039-7.233
	c2.849-3.188,4.748-6.359,5.695-9.438c0.865-2.938,1.31-7.285,1.31-13.268v-49.842
	C1909.404,135.333,1897.017,123.826,1873.589,123.826 M1898.346,171.893v36.68c0,6.242-1.632,11.09-4.838,14.404
	c-3.217,3.346-7.866,4.967-14.195,4.967h-37.295c-11.452-2.024-17.008-8.463-17.008-19.685v-16.477
	c0-11.833,5.194-18.163,15.968-19.89H1898.346L1898.346,171.893z"/>
<path d="M2015.123,123.826h-59.844V135.3h63.135c6.805,0,12.156,1.766,15.894,5.251c3.746,3.484,5.571,8.517,5.571,15.352v4.737
	h-53.34c-9.427,0-17.079,2.876-22.739,8.563c-5.664,5.724-8.521,13.468-8.521,23.054v16.548c0,7.896,2.306,14.668,6.861,20.135
	c4.566,5.479,11.063,8.926,19.705,10.271h38.65c5.152,0,9.666-0.786,13.409-2.328c3.75-1.554,7.132-3.993,10.016-7.233
	c2.845-3.196,4.761-6.359,5.696-9.424c0.877-2.979,1.317-7.313,1.317-13.281v-49.841
	C2050.937,135.333,2038.55,123.826,2015.123,123.826 M2039.879,171.893v36.68c0,6.23-1.618,11.08-4.85,14.404
	c-3.207,3.346-7.859,4.967-14.194,4.967h-37.306c-11.43-2.024-16.985-8.463-16.985-19.685v-16.477
	c0-11.833,5.187-18.163,15.966-19.89H2039.879L2039.879,171.893z"/>
<polygon points="2108.053,123.826 2108.053,87.839 2096.812,87.839 2096.812,239.197 2108.053,239.197 2108.053,135.305 
	2139.373,135.305 2139.373,123.826 "/>
<path d="M2174.964,138.311c2.071-1.449,4.634-2.456,5.837-2.716c1.224-0.284,3.958-0.295,9.063-0.295h55.66v-11.474h-55.842
	c-8.951,0-16.026,1.68-21.04,5.001c-5.081,3.364-8.623,8.666-10.605,16.101l-0.639,5.771v6.937c0,13.274,5.815,29.101,33.483,29.101
	h26.041c5.918,0,10.133,1.252,12.519,3.729c2.51,2.646,3.904,7.354,3.904,13.279l-0.071,9.383
	c-0.869,10.116-6.482,14.818-17.68,14.818h-58.196v11.266h57.96c6.801,0,12.209-1.054,16.131-3.113
	c4.029-2.144,7.412-5.674,10.039-10.498c2.141-3.777,3.186-9.22,3.186-16.615v-5.495c0-18.845-9.4-28.816-27.187-28.816h-26.433
	c-8.071,0-13.93-1.421-17.414-4.248c-3.369-2.72-5.014-6.997-5.014-13.095v-6.922
	C2168.668,145.47,2170.736,141.499,2174.964,138.311"/>
<path d="M2321.024,227.943c-4.529,0-8.078-0.346-10.561-1.019c-2.408-0.661-4.569-1.819-6.611-3.495
	c-4.771-4.044-7.084-9.83-7.084-17.705V155.49c0-4.917,0.576-8.653,1.717-11.095c1.061-2.341,3.11-4.448,6.09-6.301
	c3.006-1.856,7.649-2.795,13.797-2.795h44.276v-11.451h-45.269c-20.848,0-31.869,11.294-31.869,32.663v50.021
	c0,7.272,1.302,13.34,3.846,18.019c2.607,4.748,6.799,8.639,12.576,11.588c2.521,1.184,5.131,2.006,7.724,2.426
	c2.591,0.414,6.277,0.645,10.977,0.645h42.63v-11.266H2321.024z"/>
<path d="M2488.644,131.872c-5.914-5.333-15.987-8.046-29.94-8.046h-45.631V87.852h-11.241v151.357h11.241V135.3h49.5
	c8.647,0,14.863,1.813,18.442,5.395c3.586,3.588,5.405,9.808,5.405,18.463v80.052h11.245v-80.458
	C2497.664,146.302,2494.621,137.256,2488.644,131.872"/>
<path d="M2603.396,123.826h-59.833V135.3h63.114c6.825,0,12.176,1.766,15.905,5.237c3.754,3.511,5.568,8.541,5.568,15.366v4.737
	h-53.35c-9.426,0-17.057,2.876-22.729,8.563c-5.65,5.697-8.51,13.445-8.51,23.054v16.548c0,7.906,2.303,14.68,6.838,20.135
	c4.555,5.479,11.069,8.916,19.729,10.271h38.641c5.16,0,9.666-0.786,13.396-2.328c3.771-1.554,7.153-3.993,10.023-7.212
	c2.849-3.209,4.772-6.393,5.688-9.445c0.889-2.93,1.328-7.273,1.328-13.281v-49.841
	C2639.207,135.333,2626.819,123.826,2603.396,123.826 M2628.151,171.893v36.68c0,6.23-1.635,11.068-4.852,14.404
	c-3.219,3.346-7.863,4.967-14.196,4.967h-37.302c-11.445-2.024-16.985-8.463-16.985-19.685v-16.477
	c0-11.833,5.187-18.163,15.964-19.89H2628.151L2628.151,171.893z"/>
<path d="M2744.816,123.693h-25.647c-11.547,0-20.194,2.65-25.703,7.865c-5.548,5.235-8.368,13.37-8.368,24.166v119.735h11.254
	v-36.396h52.319c6.955,0,12.582-1.045,16.739-3.098c4.168-2.104,7.911-5.752,11.06-10.773c1.818-2.725,2.986-5.422,3.593-8.222
	c0.575-2.723,0.878-6.521,0.878-11.593v-49.826C2780.939,141.012,2774.662,123.693,2744.816,123.693 M2764.024,140.699
	c3.67,3.926,5.454,8.847,5.454,15.078v50.008c0,15.029-6.625,22.031-20.81,22.031h-52.318v-71.461
	c0-14.457,7.501-21.188,23.65-21.188h24.999c5.581,0,9.729,0.405,12.317,1.21C2759.781,137.135,2761.984,138.559,2764.024,140.699"
	/>
<path fill="#339AD5" d="M58.874,0C26.381,0,0,26.359,0,58.87v217.841C0,309.234,26.381,335.6,58.874,335.6h217.858
	c32.525,0,58.882-26.363,58.882-58.889V58.87c0-32.511-26.356-58.87-58.882-58.87H58.874"/>
<path fill="#FFFFFF" d="M120.878,119.27l-17.224,0.143c-9.876,0.094-17.999,8.215-17.999,18.171v147.195h36.316V173.934
	c12.377,20.396,29.438,48.451,29.438,48.451c3.305,5.387,9.187,8.73,15.497,8.756c6.281,0,12.209-3.314,15.497-8.674
	c0,0,17.768-28.957,30.423-49.578c-0.012,16.648-0.155,111.893-0.155,111.893h36.269l0.283-147.176c0-4.805-1.933-9.501-5.36-12.917
	c-3.351-3.404-8.123-5.308-12.968-5.274l-17.903,0.158c-6.309,0.068-12.057,3.294-15.345,8.667c0,0-20.343,33.087-30.646,49.907
	c-8.158-13.5-30.457-50.146-30.457-50.146C133.261,122.559,127.281,119.222,120.878,119.27"/>
<path fill="#FFFFFF" d="M78.201,76.405c0,14.127,11.468,25.624,25.621,25.624c14.107,0,25.611-11.496,25.611-25.624
	c0-14.108-11.503-25.605-25.611-25.605C89.669,50.8,78.201,62.297,78.201,76.405"/>
<path fill="#FFFFFF" d="M206.159,76.405c0,14.127,11.49,25.624,25.656,25.624c14.063,0,25.612-11.496,25.612-25.624
	c0-14.108-11.55-25.605-25.612-25.605C217.65,50.8,206.159,62.297,206.159,76.405"/>
<path d="M1693.469,239.209c2.649,0,4.807-1.282,6.228-3.719l2.434-4.631l55.075-115.863v123.238h12.057l-0.163-146.678
	c0,0,0.256-6.176-6.563-6.176c-3.324,0-4.771,1.671-5.534,3.085l-3,5.557l-60.68,126.916h-0.26L1632.38,94.022l-2.994-5.557
	c-0.769-1.414-2.202-3.085-5.537-3.085c-6.823,0-6.568,6.176-6.568,6.176l-0.16,146.678h12.054V114.997l55.076,115.862l2.437,4.632
	c1.424,2.437,3.576,3.719,6.225,3.719L1693.469,239.209L1693.469,239.209z"/>
</svg>
