<?xml version="1.0" encoding="utf-8"?>
<!-- Generator: Adobe Illustrator 26.0.0, SVG Export Plug-In . SVG Version: 6.00 Build 0)  -->
<svg version="1.1" id="Layer_1" xmlns="http://www.w3.org/2000/svg" xmlns:xlink="http://www.w3.org/1999/xlink" x="0px" y="0px"
	 viewBox="0 0 1000 224" style="enable-background:new 0 0 1000 224;" xml:space="preserve">
<style type="text/css">
	.st0{clip-path:url(#SVGID_00000161602243516674346360000013820776202515317154_);fill:#EC2179;}
	.st1{clip-path:url(#SVGID_00000161602243516674346360000013820776202515317154_);fill:#4C4F6E;}
	.st2{clip-path:url(#SVGID_00000161602243516674346360000013820776202515317154_);fill:#F15B2D;}
	.st3{clip-path:url(#SVGID_00000161602243516674346360000013820776202515317154_);fill:#8DD1CF;}
</style>
<g>
	<defs>
		<rect id="SVGID_1_" y="4.62" width="1000" height="214.99"/>
	</defs>
	<clipPath id="SVGID_00000182486663041329010110000017745146457763746705_">
		<use xlink:href="#SVGID_1_"  style="overflow:visible;"/>
	</clipPath>
	<path style="clip-path:url(#SVGID_00000182486663041329010110000017745146457763746705_);fill:#EC2179;" d="M49.21,155.33
		l0.01,0.11l0.01,0C49.22,155.41,49.22,155.37,49.21,155.33"/>
	<path style="clip-path:url(#SVGID_00000182486663041329010110000017745146457763746705_);fill:#EC2179;" d="M179.71,84.18
		c0.1,0.24,0.19,0.46,0.28,0.7l0.01,0L179.71,84.18z"/>
	<path style="clip-path:url(#SVGID_00000182486663041329010110000017745146457763746705_);fill:#4C4F6E;" d="M210.35,98.54
		c-0.01-0.02-0.01-0.05-0.01-0.07l-0.01-0.02l-0.93-5.34l0-0.01c-0.05-0.25-0.1-0.49-0.15-0.74l-25.11,7.13
		c0.38,2.05,0.68,4.1,0.89,6.15c3.94,37.78-19.74,74.17-57.5,84.9c-25.48,7.24-51.65,1.17-71.04-14.05
		c-4.13-3.23-7.94-6.88-11.38-10.91c-4.36-5.1-8.11-10.79-11.12-17.01l11.26-3.16c2.05,3.94,4.49,7.68,7.3,11.17
		c5.52,6.88,12.25,12.55,19.99,16.87c6.04,3.37,12.47,5.78,19.16,7.19c1.88,0.4,3.78,0.71,5.69,0.95
		c5.54,0.69,11.07,0.69,16.57,0.01c3.51-0.43,6.99-1.13,10.44-2.11c8.86-2.52,16.96-6.69,24.08-12.41c3.27-2.63,6.27-5.53,8.98-8.69
		c2.99-3.47,5.62-7.25,7.88-11.31c0.28-0.5,0.56-1.01,0.82-1.51c3.84-7.31,6.3-15.15,7.32-23.34c0.55-4.44,0.66-8.89,0.34-13.31
		c-0.06-0.7-0.12-1.41-0.2-2.14c-0.03-0.29-0.06-0.59-0.1-0.89c-0.04-0.34-0.09-0.7-0.14-1.05c-0.06-0.47-0.13-0.93-0.2-1.39
		c-0.04-0.27-0.09-0.54-0.13-0.81l-5.77,1.64c0.05,2.26,0.14,4.73,0.2,6.41l0.01,0c0.04,0.67,0.06,1.33,0.07,2v0.01
		c0.19,10.18-2.16,20.09-6.61,28.93c-2.43,4.82-5.48,9.33-9.09,13.38c-7.55,8.49-17.51,14.99-29.22,18.32
		c-2.96,0.84-5.94,1.45-8.91,1.84c-7.22,0.95-14.4,0.58-21.26-0.94c-17.14-3.8-32.23-14.81-40.91-30.58
		c-1.01-1.84-1.93-3.74-2.76-5.71l-23.5,6.68c0.74,1.94,1.54,3.85,2.41,5.71c2.9,6.23,6.53,12.07,10.87,17.46
		c0.64,0.8,1.3,1.59,1.97,2.36c3.51,4.06,7.37,7.77,11.55,11.08c3.66,2.91,7.58,5.53,11.72,7.84c9.77,5.44,20.32,8.9,31.37,10.27
		c11.44,1.42,22.91,0.53,34.09-2.65c11.18-3.18,21.41-8.45,30.39-15.67c8.68-6.98,15.84-15.46,21.29-25.23
		c5.44-9.77,8.9-20.33,10.27-31.37c0.85-6.86,0.87-13.73,0.06-20.55l12.83-3.6c2.94,21.21-1.16,42.21-10.78,60.25
		c-3.08,5.78-6.72,11.25-10.88,16.32c-12.4,15.15-29.37,26.79-49.58,32.53c-50.21,14.27-102.57-12.95-120.32-61.15l-4.15-14.61
		c-1.4-6.87-2.05-13.75-1.99-20.53C6.77,71.6,33.34,33.35,74.25,19.7c1.43-0.48,2.89-0.93,4.35-1.34c2.07-0.59,4.14-1.11,6.22-1.55
		c3.28-0.71,6.57-1.24,9.86-1.62c2.13-0.24,4.26-0.41,6.38-0.51c36.03-1.71,70.33,16.51,89.18,47c2.9,4.68,5.43,9.66,7.55,14.9
		l-12.77,3.63c-2.2-5.2-4.9-10.15-8.08-14.81c-1.27-1.86-2.61-3.68-4.04-5.45c-6.97-8.68-15.46-15.84-25.23-21.28
		c-9.77-5.44-20.32-8.9-31.37-10.27c-11.44-1.42-22.91-0.53-34.09,2.65c-11.18,3.18-21.41,8.45-30.39,15.67
		c-8.68,6.97-15.84,15.46-21.28,25.23c-5.45,9.77-8.9,20.32-10.27,31.37c-0.25,2.02-0.43,4.04-0.53,6.06
		c-0.26,4.87-0.1,9.74,0.48,14.58c0.06,0.5,0.13,1.01,0.2,1.52c0.03,0.26,0.07,0.51,0.11,0.77c0.03,0.26,0.07,0.52,0.12,0.78
		c0.03,0.23,0.07,0.46,0.11,0.69c0.17,1.11,0.36,2.18,0.56,3.22c7.81-2.23,15.63-4.45,23.44-6.68l-0.1-0.91l-0.01-0.12
		c-0.31-2.01-0.52-4.02-0.62-6.02c-0.27-5.05,0.08-10.05,1.01-14.9c4.27-22.21,20.61-41.3,43.82-47.89
		c23.37-6.64,47.49,1.16,62.79,18.06c3.69,4.08,6.87,8.68,9.39,13.74l0.01,0.01l3.3,6.2l5.81-1.59l-2.45-5.8l-0.1,0.03
		c-2.3-4.97-5.19-9.62-8.65-13.92c-0.15-0.2-0.32-0.39-0.48-0.59c-5.44-6.61-11.99-12.09-19.51-16.28
		c-7.74-4.32-16.1-7.06-24.86-8.14c-9.06-1.12-18.15-0.42-27.01,2.1c-8.86,2.52-16.96,6.7-24.08,12.42
		c-6.88,5.52-12.55,12.25-16.87,19.99c-4.1,7.35-6.77,15.28-7.95,23.56c-0.07,0.43-0.12,0.87-0.17,1.3
		c-0.56,4.5-0.67,9.01-0.33,13.48c-3.74,1.06-7.49,2.13-11.23,3.19c-0.52-4.92-0.57-9.82-0.18-14.64c2.6-32.22,24.79-61,57.67-70.34
		c33.09-9.4,67.34,3.64,86.42,30.03c3.48,4.81,6.44,10.05,8.81,15.68l0.02,0.04c0.15,0.35,0.3,0.71,0.44,1.07l0.06,0.16l0.28,0.7
		l1.11,2.69l25.21-6.92l-2.22-5.56l-0.11-0.27c-2.05-5.19-4.5-10.17-7.32-14.94c-2.52-4.25-5.35-8.32-8.47-12.21
		c-8.56-10.65-18.98-19.44-30.97-26.13c-11.99-6.69-24.95-10.93-38.52-12.61c-6.35-0.79-12.72-1-19.05-0.62
		c-1.87,0.11-3.73,0.27-5.59,0.48c-3.19,0.36-6.37,0.86-9.53,1.52c-2.57,0.53-5.13,1.16-7.68,1.88c-1.6,0.45-3.18,0.94-4.74,1.47
		c-11.89,3.97-22.83,9.94-32.57,17.77C28.88,39.99,20.09,50.41,13.41,62.4C6.72,74.39,2.48,87.35,0.8,100.91
		c-0.58,4.66-0.84,9.33-0.8,13.98c0.07,6.87,0.81,13.71,2.23,20.49L6.39,150c3.95,10.92,9.62,21.02,16.9,30.08
		c8.57,10.65,18.99,19.44,30.98,26.13c11.99,6.68,24.95,10.92,38.51,12.6c14.05,1.74,28.13,0.64,41.85-3.26
		c13.72-3.9,26.28-10.37,37.31-19.24c5.47-4.4,10.46-9.29,14.91-14.63c4.22-5.05,7.97-10.51,11.22-16.34
		c0.48-0.86,0.95-1.73,1.4-2.6c5.88-11.26,9.65-23.32,11.21-35.91C211.85,117.38,211.74,107.91,210.35,98.54 M155.44,107.65l-0.01,0
		l-6.06,1.73c0.11,1.05,0.19,2.18,0.22,3.39c0.03,1.04,0.02,2.02-0.02,2.94c-0.78,18.39-13.19,35.05-31.83,40.35
		c-20.77,5.91-42.37-4.26-51.46-23.07l-0.04,0.01c-0.85-2.31-1.68-4.83-2.45-7.54c-0.7-2.47-1.26-4.84-1.72-7.06l0.06-0.02
		c-0.58-5.61-0.06-11.17,1.43-16.41c0.52-1.84,1.16-3.63,1.91-5.38c2.14-4.98,5.2-9.55,9.01-13.45c5.15-5.26,11.7-9.29,19.28-11.44
		c13.31-3.78,26.96-0.96,37.44,6.5c5.01,3.57,9.29,8.2,12.47,13.67l-0.01,0l2.68,5.5l6.07-1.66l0.04-0.01
		c-1.44-3.65-3.3-7.15-3.44-7.43c-0.01-0.01-0.01-0.01-0.01-0.02c-1.21-2.03-2.56-3.98-4.05-5.84c-1.85-2.3-3.88-4.42-6.09-6.35
		c-2.64-2.31-5.53-4.34-8.63-6.08c-5.7-3.18-11.86-5.2-18.31-5.99c-6.68-0.83-13.38-0.31-19.9,1.55
		c-6.52,1.86-12.49,4.94-17.74,9.15c-1.96,1.57-3.79,3.28-5.47,5.11c-2.68,2.9-5,6.12-6.95,9.61c-1.66,2.98-3.01,6.08-4.02,9.29
		c0,0.01-0.01,0.02-0.01,0.04c-0.92,2.92-1.58,5.92-1.96,8.99c-0.51,4.05-0.51,8.1-0.02,12.11l-0.05,0.01
		c0.42,2.04,0.93,4.17,1.53,6.38c0.83,3.07,1.76,5.92,2.71,8.54c1.72,3.79,3.9,7.33,6.52,10.59c4.07,5.07,9.02,9.24,14.73,12.42
		c5.7,3.18,11.86,5.2,18.31,5.99c6.68,0.83,13.37,0.31,19.9-1.55c6.52-1.86,12.49-4.93,17.74-9.15c5.07-4.07,9.24-9.02,12.42-14.73
		c3.18-5.7,5.2-11.86,5.99-18.31c0.11-0.86,0.19-1.72,0.25-2.58v-0.01c0.09-1.18,0.13-2.36,0.13-3.55l0.02,0
		C155.95,111.74,155.68,109.39,155.44,107.65"/>
	<path style="clip-path:url(#SVGID_00000182486663041329010110000017745146457763746705_);fill:#F15B2D;" d="M40.02,175.05
		c-0.87-4.66,2.21-9.13,6.86-10c1.47-0.27,2.93-0.15,4.26,0.28c1.6,0.53,3.02,1.53,4.06,2.86c0.83,1.05,1.42,2.31,1.68,3.72
		c0.87,4.66-2.21,9.13-6.86,10c-1.51,0.28-3,0.15-4.36-0.32c-1.6-0.55-3-1.56-4.03-2.91C40.85,177.65,40.28,176.42,40.02,175.05"/>
	<path style="clip-path:url(#SVGID_00000182486663041329010110000017745146457763746705_);fill:#4C4F6E;" d="M150.32,151.49
		c-0.87-4.66,2.21-9.13,6.86-10c1.47-0.27,2.93-0.15,4.26,0.28c1.6,0.53,3.02,1.53,4.06,2.86c0.83,1.05,1.42,2.31,1.68,3.72
		c0.87,4.66-2.21,9.13-6.86,10c-1.51,0.28-3,0.15-4.36-0.32c-1.6-0.55-3-1.56-4.03-2.91C151.15,154.09,150.58,152.86,150.32,151.49"
		/>
	<path style="clip-path:url(#SVGID_00000182486663041329010110000017745146457763746705_);fill:#4C4F6E;" d="M153.9,100.19
		c0.71,2.48,1.21,4.97,1.52,7.46c3.03,24.03-11.86,47.33-35.87,54.16c-26.5,7.53-54.09-7.85-61.62-34.35s7.85-54.09,34.35-61.62
		c24.97-7.09,50.9,6.15,60.12,29.86c0.53,1.36,1,2.76,1.42,4.19l0,0.01C153.85,99.99,153.88,100.09,153.9,100.19"/>
	<path style="clip-path:url(#SVGID_00000182486663041329010110000017745146457763746705_);fill:#8DD1CF;" d="M84.17,14.76
		c-0.87-4.66,2.21-9.13,6.86-10c1.47-0.27,2.93-0.15,4.26,0.28c1.6,0.53,3.02,1.53,4.06,2.86c0.83,1.05,1.42,2.31,1.68,3.72
		c0.87,4.66-2.21,9.13-6.86,10c-1.51,0.28-3,0.15-4.36-0.32c-1.6-0.55-3-1.56-4.03-2.91C84.99,17.37,84.42,16.13,84.17,14.76"/>
	<path style="clip-path:url(#SVGID_00000182486663041329010110000017745146457763746705_);fill:#4C4F6E;" d="M598.28,152.76h22.13
		v-3.46c0-23.98-3.68-60.87-35.27-60.87c-32.06,0-34.81,37.11-34.81,60.87c0,24.67,2.99,59.25,35.5,59.25
		c24.43,0,33.89-19.59,33.89-41.03h-20.06c0,8.99-2.07,21.67-13.6,21.67c-9.5,0-12.38-12.18-13.24-23.08
		c-0.33-4.17-0.37-8.15-0.37-11.19V136.2c-0.05-9.46-0.39-28.4,12.68-28.4c12.77,0,13.13,19.36,13.14,28.7V152.76z"/>
	
		<rect x="554.26" y="144.25" transform="matrix(0.9629 -0.27 0.27 0.9629 -19.5326 164.1048)" style="clip-path:url(#SVGID_00000182486663041329010110000017745146457763746705_);fill:#4C4F6E;" width="64.99" height="17.61"/>
	<path style="clip-path:url(#SVGID_00000182486663041329010110000017745146457763746705_);fill:#4C4F6E;" d="M291.43,33.36
		c-4.69-0.66-9.47-0.76-13.96-0.76h-27.66v173.84h23.05v-77.01c35.97,1.38,49.8-14.99,49.8-50.26
		C322.66,44.58,307.49,35.64,291.43,33.36 M272.86,109.84V52.2h3.23c17.53,0,22.14,13.14,22.14,28.82
		C298.22,100.39,292.69,111.22,272.86,109.84"/>
	<polygon style="clip-path:url(#SVGID_00000182486663041329010110000017745146457763746705_);fill:#4C4F6E;" points="356.78,15.08 
		335.11,21.14 335.11,206.44 356.78,206.44 356.78,15.08 	"/>
	<path style="clip-path:url(#SVGID_00000182486663041329010110000017745146457763746705_);fill:#4C4F6E;" d="M422.72,90.01v12.91
		h-0.46c-3.92-8.53-10.61-14.75-20.75-14.75c-23.82,0-27.48,29.54-28.03,50c-0.09,3.11-0.1,6-0.1,8.55
		c0,18.9,0.46,61.56,27.44,61.56c12.45,0,17.06-6.68,21.44-16.83h0.46v14.99h21.67V90.01H422.72z M423.41,148.11
		c0,9.22,0.93,40.81-13.6,40.81c-16.14,0-14.3-31.13-14.3-40.81c0-3.4-0.24-9.6,0.21-16.16c0.79-11.66,3.75-24.42,14.09-24.42
		c7.32,0,10.72,7.96,12.28,17.04C423.64,133.51,423.41,143.54,423.41,148.11"/>
	<path style="clip-path:url(#SVGID_00000182486663041329010110000017745146457763746705_);fill:#4C4F6E;" d="M527.36,95.12
		c-3.51-4.27-8.93-6.95-17.27-6.95c-11.53,0-18.67,5.76-23.51,15.22h-0.46V90.01h-21.67v116.43h21.67v-72.63
		c0-9.91-1.15-26.29,13.14-26.29c11.53,0,12.91,10.38,12.91,18.44v80.47h21.67v-80.01C533.84,115.11,533.56,102.65,527.36,95.12"/>
	<polygon style="clip-path:url(#SVGID_00000182486663041329010110000017745146457763746705_);fill:#4C4F6E;" points="663.17,90.01 
		663.17,57.13 641.5,63.19 641.5,90.01 629.74,90.01 629.74,107.07 641.5,107.07 641.5,206.44 663.17,206.44 663.17,107.07 
		674.7,107.07 674.7,90.01 	"/>
	<path style="clip-path:url(#SVGID_00000182486663041329010110000017745146457763746705_);fill:#4C4F6E;" d="M758.63,88.17
		c-11.53,0-18.68,5.76-23.52,15.22h-0.46V90.01h-21.67v116.43h21.67v-72.62c0-9.91-1.15-26.29,13.14-26.29
		c11.53,0,12.91,10.37,12.91,18.44v80.46h21.67v-80C782.37,108.69,781.68,88.17,758.63,88.17"/>
	<path style="clip-path:url(#SVGID_00000182486663041329010110000017745146457763746705_);fill:#4C4F6E;" d="M813.26,40.45
		c-8.07,0-14.52,6.45-14.52,14.29c0,8.07,6.46,14.53,14.52,14.53c7.61,0,14.3-6.46,14.3-14.53
		C827.56,46.9,820.87,40.45,813.26,40.45 M802.2,206.44h21.67V90.01H802.2V206.44z"/>
	<path style="clip-path:url(#SVGID_00000182486663041329010110000017745146457763746705_);fill:#4C4F6E;" d="M889.57,88.17
		c-11.53,0-18.67,5.76-23.51,15.22h-0.46V90.01h-21.67v116.43h21.67v-72.62c0-9.91-1.16-26.29,13.14-26.29
		c11.53,0,12.91,10.37,12.91,18.44v80.46h21.67v-80C913.32,108.69,912.63,88.17,889.57,88.17"/>
	<path style="clip-path:url(#SVGID_00000182486663041329010110000017745146457763746705_);fill:#4C4F6E;" d="M977.87,153.37H1000
		v-3.46c0-23.98-3.68-60.87-35.27-60.87c-32.05,0-34.81,37.12-34.81,60.87c0,24.66,2.99,59.24,35.5,59.24
		c24.43,0,33.89-19.59,33.89-41.03h-20.06c0,8.99-2.07,21.67-13.6,21.67c-9.5,0-12.38-12.19-13.24-23.09
		c-0.33-4.17-0.37-8.15-0.37-11.19v-18.71c-0.05-9.46-0.39-28.4,12.68-28.4c12.77,0,13.13,19.36,13.14,28.71V153.37z"/>
	
		<rect x="933.85" y="144.86" transform="matrix(0.9629 -0.27 0.27 0.9629 -5.6 266.616)" style="clip-path:url(#SVGID_00000182486663041329010110000017745146457763746705_);fill:#4C4F6E;" width="64.99" height="17.61"/>
</g>
</svg>
